<?xml version="1.0" encoding="utf-8"?><svg viewBox="0 0 44 34" xmlns="http://www.w3.org/2000/svg" xmlns:xlink="http://www.w3.org/1999/xlink"><style>:root>svg{display:none}:root>svg:target{display:block}</style><svg viewBox="0 0 14 16" id="icon-instagram" xmlns="http://www.w3.org/2000/svg"><g clip-path="url(#aclip0_10_101)"><path d="M7.003 4.406a3.585 3.585 0 00-3.59 3.591 3.585 3.585 0 003.59 3.59 3.585 3.585 0 003.59-3.59 3.585 3.585 0 00-3.59-3.59zm0 5.925a2.339 2.339 0 01-2.334-2.334 2.337 2.337 0 012.334-2.334 2.337 2.337 0 012.334 2.334 2.339 2.339 0 01-2.334 2.334zm4.575-6.072a.836.836 0 01-.837.838.838.838 0 11.837-.837zm2.378.85c-.053-1.121-.31-2.115-1.131-2.934-.819-.819-1.813-1.075-2.934-1.131-1.157-.066-4.622-.066-5.779 0-1.118.053-2.112.31-2.934 1.128C.356 2.991.103 3.984.047 5.106c-.066 1.157-.066 4.622 0 5.778C.1 12.006.357 13 1.178 13.82c.822.819 1.813 1.075 2.934 1.131 1.157.066 4.622.066 5.779 0 1.121-.053 2.115-.31 2.934-1.131.819-.819 1.075-1.813 1.131-2.935.066-1.156.066-4.618 0-5.775zm-1.494 7.016a2.363 2.363 0 01-1.33 1.331c-.923.366-3.11.282-4.129.282-1.019 0-3.21.08-4.128-.282a2.363 2.363 0 01-1.331-1.33c-.366-.923-.282-3.11-.282-4.129 0-1.019-.08-3.21.282-4.128a2.363 2.363 0 011.33-1.331c.923-.366 3.11-.282 4.129-.282 1.019 0 3.21-.08 4.128.282a2.363 2.363 0 011.331 1.33c.366.923.282 3.11.282 4.129 0 1.019.084 3.21-.282 4.128z"/></g><defs><clipPath id="aclip0_10_101"><path d="M0 0h14v16H0z"/></clipPath></defs></svg><svg viewBox="0 0 14 14" id="icon-telegram" xmlns="http://www.w3.org/2000/svg"><g clip-path="url(#bclip0_10_111)"><path d="M7 .219C3.134.219 0 3.255 0 7c0 3.745 3.134 6.781 7 6.781S14 10.745 14 7C14 3.255 10.866.219 7 .219zm3.245 4.612c-.106 1.072-.562 3.674-.794 4.875-.098.508-.29.678-.478.695-.406.036-.715-.26-1.109-.51-.616-.391-.964-.635-1.562-1.017-.691-.44-.243-.683.15-1.08.104-.103 1.895-1.682 1.93-1.825.004-.018.008-.085-.033-.12-.041-.035-.101-.023-.145-.013-.062.013-1.046.643-2.953 1.89-.279.186-.532.277-.759.272-.25-.005-.73-.137-1.088-.25-.438-.138-.787-.21-.756-.445.016-.122.19-.247.52-.375a340.13 340.13 0 014.083-1.703c1.944-.784 2.348-.92 2.611-.924.058-.001.187.013.271.079a.283.283 0 01.1.183c.014.089.018.178.012.268z"/></g><defs><clipPath id="bclip0_10_111"><path d="M0 0h14v14H0z"/></clipPath></defs></svg><svg viewBox="0 0 34 34" id="icon-time" xmlns="http://www.w3.org/2000/svg"><g clip-path="url(#cclip0_0_380)"><path d="M31.754 12.881l.996-.996c.288-.288.447-.67.447-1.078 0-.407-.159-.79-.447-1.077l-1.14-1.141a1.514 1.514 0 00-1.078-.447c-.407 0-.79.159-1.078.447l-.996.996a12.7 12.7 0 00-4.412-1.933V6.179h.606a1.49 1.49 0 001.488-1.488v-2.07a1.49 1.49 0 00-1.488-1.488H17.8a1.49 1.49 0 00-1.488 1.488v2.07c0 .82.668 1.488 1.488 1.488h.606v1.477a12.703 12.703 0 00-4.392 1.929l-.996-.996a1.514 1.514 0 00-1.078-.447c-.407 0-.79.159-1.078.447l-1.14 1.14a1.526 1.526 0 000 2.156l.176.177H5.19a.664.664 0 000 1.328h5.193a12.713 12.713 0 00-1.215 2.552H.664a.664.664 0 000 1.328H8.79a12.747 12.747 0 00-.314 2.553H4.25a.664.664 0 000 1.328h4.265c.072.879.233 1.733.474 2.552H3.32a.664.664 0 000 1.329h6.142c1.932 4.598 6.482 7.835 11.774 7.835C28.274 32.867 34 27.142 34 20.104c0-2.678-.83-5.167-2.246-7.222zm-1.36-3.353a.192.192 0 01.138-.058c.037 0 .091.01.139.058l1.14 1.14a.193.193 0 01.058.14c0 .037-.01.09-.058.138l-.873.873c-.435-.509-.91-.983-1.418-1.418l.873-.873zM17.64 4.69v-2.07a.16.16 0 01.16-.16h6.852a.16.16 0 01.16.16v2.07a.16.16 0 01-.16.16H17.8a.16.16 0 01-.16-.16zm2.095 1.488h2.983v1.247a12.835 12.835 0 00-2.983.002V6.179zm-9.075 4.49l1.141-1.141a.192.192 0 01.139-.058c.037 0 .091.01.139.058l.873.873c-.51.435-.983.91-1.418 1.418l-.874-.873a.196.196 0 010-.277zm10.576 20.87C14.93 31.54 9.8 26.41 9.8 20.103S14.93 8.667 21.236 8.667s11.436 5.13 11.436 11.436-5.13 11.436-11.436 11.436z"/><path d="M25.619 14.781l-3.14 3.14a2.498 2.498 0 00-1.243-.331 2.517 2.517 0 00-2.514 2.513 2.517 2.517 0 002.514 2.514 2.516 2.516 0 002.514-2.514c0-.452-.121-.877-.331-1.244l3.139-3.139a.664.664 0 00-.94-.939zm-4.383 6.508a1.187 1.187 0 01-1.186-1.186 1.187 1.187 0 012.371 0c0 .654-.531 1.186-1.185 1.186zM21.236 11.494a.669.669 0 00.47-.195.67.67 0 00.194-.47.669.669 0 00-.664-.664.669.669 0 00-.664.664.668.668 0 00.664.665zM21.236 28.713a.669.669 0 00-.47.194.668.668 0 00.47 1.134.666.666 0 00.664-.664.669.669 0 00-.194-.47.669.669 0 00-.47-.194zM14.678 12.882a.67.67 0 00-.47.194.67.67 0 00-.194.47.67.67 0 00.195.47.669.669 0 00.939 0 .67.67 0 00.194-.47.67.67 0 00-.194-.47.669.669 0 00-.47-.194zM27.794 25.997a.67.67 0 00-.47.194.668.668 0 000 .94.67.67 0 00.47.194.669.669 0 00.47-.195.67.67 0 00.194-.47.669.669 0 00-.664-.663zM14.678 25.997a.67.67 0 00-.47.194.669.669 0 00-.194.47.67.67 0 00.195.47.67.67 0 00.47.194.669.669 0 00.469-.195.67.67 0 00.194-.47.67.67 0 00-.194-.469.67.67 0 00-.47-.194zM11.963 19.44a.668.668 0 00-.665.663.667.667 0 00.665.664.666.666 0 00.664-.664.669.669 0 00-.195-.47.669.669 0 00-.47-.194zM30.98 19.634a.667.667 0 00-1.133.47.667.667 0 00.663.663.669.669 0 00.664-.664.67.67 0 00-.195-.47zM.664 23.704a.669.669 0 00-.47.194.67.67 0 00-.194.47.67.67 0 00.195.47.67.67 0 00.47.194.669.669 0 00.468-.195.67.67 0 00.195-.47.67.67 0 00-.195-.47.668.668 0 00-.469-.193z"/><path d="M30.314 18.087a.664.664 0 00.447-.826 9.964 9.964 0 00-6.704-6.689.664.664 0 10-.376 1.274 8.576 8.576 0 015.807 5.794.664.664 0 00.826.447z"/></g><defs><clipPath id="cclip0_0_380"><path d="M0 0h34v34H0z"/></clipPath></defs></svg><svg viewBox="0 0 14 14" id="icon-vk" xmlns="http://www.w3.org/2000/svg"><path d="M13.246 3.065c.09-.325 0-.565-.432-.565h-1.432c-.364 0-.532.206-.622.435 0 0-.73 1.904-1.76 3.138-.333.357-.486.471-.668.471-.09 0-.229-.114-.229-.44V3.065c0-.39-.102-.565-.403-.565H5.45a.356.356 0 00-.365.352c0 .37.515.455.568 1.497v2.26c0 .495-.082.586-.264.586-.487 0-1.668-1.911-2.368-4.099-.14-.424-.28-.596-.646-.596H.943c-.408 0-.49.206-.49.435 0 .406.485 2.424 2.262 5.091 1.184 1.82 2.851 2.807 4.368 2.807.911 0 1.023-.218 1.023-.596 0-1.74-.083-1.904.374-1.904.212 0 .576.115 1.427.993.972 1.041 1.133 1.507 1.677 1.507h1.432c.408 0 .615-.218.495-.65-.272-.91-2.112-2.78-2.194-2.904-.212-.292-.151-.422 0-.683.002-.002 1.75-2.638 1.93-3.53z"/></svg><svg viewBox="0 0 44 18" id="up-down-btn" xmlns="http://www.w3.org/2000/svg"><path d="M.24.562l22 16M21.915 16.782L43.602 1.01"/></svg></svg>