<svg width="14" height="14" viewBox="0 0 14 14" fill="none" xmlns="http://www.w3.org/2000/svg">
<g clip-path="url(#clip0_10_111)">
<path d="M7 0.21875C3.134 0.21875 0 3.25481 0 7C0 10.7452 3.134 13.7812 7 13.7812C10.866 13.7812 14 10.7452 14 7C14 3.25481 10.866 0.21875 7 0.21875ZM10.2446 4.83055C10.1393 5.90283 9.68346 8.50494 9.45147 9.70594C9.35335 10.2141 9.16012 10.3845 8.9731 10.4012C8.56664 10.4374 8.25791 10.1409 7.86419 9.89089C7.2481 9.49966 6.90005 9.25611 6.302 8.87433C5.61089 8.43314 6.05892 8.19074 6.45279 7.79425C6.55587 7.69054 8.34694 6.11234 8.3816 5.96917C8.38591 5.95126 8.39006 5.8844 8.34902 5.84929C8.30798 5.81418 8.24769 5.82608 8.20408 5.83562C8.14231 5.84922 7.15809 6.47942 5.25144 7.72622C4.9721 7.91205 4.71906 8.0026 4.49233 7.99786C4.24239 7.99263 3.76163 7.86097 3.4042 7.7484C2.96583 7.61037 2.61741 7.53739 2.64775 7.30294C2.66356 7.18081 2.83715 7.05594 3.16852 6.92833C5.20917 6.06704 6.56991 5.4992 7.25076 5.22482C9.19473 4.4415 9.59866 4.30544 9.86195 4.3009C9.91987 4.29997 10.0493 4.31386 10.1332 4.37979C10.189 4.42675 10.2245 4.49228 10.2328 4.56343C10.2471 4.65176 10.251 4.74136 10.2446 4.83055Z" fill="white"/>
</g>
<defs>
<clipPath id="clip0_10_111">
<rect width="14" height="14" fill="white"/>
</clipPath>
</defs>
</svg>
