<svg width="14" height="14" viewBox="0 0 14 14" fill="none" xmlns="http://www.w3.org/2000/svg">
<path d="M13.2465 3.0651C13.3365 2.73958 13.2465 2.5 12.8139 2.5H11.3823C11.0177 2.5 10.85 2.70573 10.7601 2.9349C10.7601 2.9349 10.0309 4.83854 9.00035 6.07292C8.66736 6.42969 8.51424 6.54427 8.33195 6.54427C8.24202 6.54427 8.10348 6.42969 8.10348 6.10417V3.0651C8.10348 2.67448 8.00139 2.5 7.7 2.5H5.44931C5.22084 2.5 5.08473 2.68229 5.08473 2.85156C5.08473 3.22135 5.6 3.30729 5.65348 4.34896V6.60938C5.65348 7.10417 5.57084 7.19531 5.38855 7.19531C4.90243 7.19531 3.72118 5.28385 3.02118 3.09635C2.88021 2.67188 2.74167 2.5 2.37466 2.5H0.94306C0.534726 2.5 0.452087 2.70573 0.452087 2.9349C0.452087 3.34115 0.938198 5.35938 2.71493 8.02604C3.89861 9.84635 5.56598 10.8333 7.08264 10.8333C7.9941 10.8333 8.10591 10.6146 8.10591 10.237C8.10591 8.4974 8.02327 8.33333 8.48021 8.33333C8.69167 8.33333 9.05625 8.44792 9.90695 9.32552C10.8792 10.3672 11.0396 10.8333 11.584 10.8333H13.0156C13.424 10.8333 13.6306 10.6146 13.5115 10.1823C13.2392 9.27344 11.3993 7.40365 11.3167 7.27865C11.1052 6.98698 11.166 6.85677 11.3167 6.59635C11.3191 6.59375 13.0667 3.95833 13.2465 3.0651Z" fill="white"/>
</svg>
